<mxfile host="app.diagrams.net" modified="2020-03-29T15:01:52.969Z" agent="5.0 (Windows)" etag="qHG2s1QJ6-35FXOlJw3r" version="12.9.4" type="github">
  <diagram id="QhE3EsSYQP1DqTzUuK1Z" name="Page-1">
    <mxGraphModel dx="2031" dy="1270" grid="1" gridSize="10" guides="1" tooltips="1" connect="1" arrows="1" fold="1" page="1" pageScale="1" pageWidth="827" pageHeight="1169" math="0" shadow="0">
      <root>
        <mxCell id="0" />
        <mxCell id="1" parent="0" />
        <mxCell id="ZFpSDuq5nXmiJ_NLIYVW-51" style="edgeStyle=none;comic=0;orthogonalLoop=1;jettySize=auto;html=1;exitX=0.5;exitY=1;exitDx=0;exitDy=0;entryX=0.5;entryY=0;entryDx=0;entryDy=0;shadow=0;sourcePerimeterSpacing=3;endArrow=halfCircle;endFill=0;" edge="1" parent="1" source="ZFpSDuq5nXmiJ_NLIYVW-4" target="ZFpSDuq5nXmiJ_NLIYVW-24">
          <mxGeometry relative="1" as="geometry" />
        </mxCell>
        <mxCell id="ZFpSDuq5nXmiJ_NLIYVW-4" value="" style="ellipse;shape=doubleEllipse;whiteSpace=wrap;html=1;aspect=fixed;" vertex="1" parent="1">
          <mxGeometry x="369" y="630" width="90" height="90" as="geometry" />
        </mxCell>
        <mxCell id="ZFpSDuq5nXmiJ_NLIYVW-38" style="edgeStyle=none;comic=0;orthogonalLoop=1;jettySize=auto;html=1;exitX=0.5;exitY=1;exitDx=0;exitDy=0;entryX=0.5;entryY=0;entryDx=0;entryDy=0;shadow=0;sourcePerimeterSpacing=3;endArrow=halfCircle;endFill=0;" edge="1" parent="1" source="ZFpSDuq5nXmiJ_NLIYVW-5" target="ZFpSDuq5nXmiJ_NLIYVW-15">
          <mxGeometry relative="1" as="geometry" />
        </mxCell>
        <mxCell id="ZFpSDuq5nXmiJ_NLIYVW-5" value="" style="ellipse;whiteSpace=wrap;html=1;aspect=fixed;" vertex="1" parent="1">
          <mxGeometry x="395" y="20" width="50" height="50" as="geometry" />
        </mxCell>
        <mxCell id="ZFpSDuq5nXmiJ_NLIYVW-37" style="edgeStyle=none;comic=0;orthogonalLoop=1;jettySize=auto;html=1;exitX=1;exitY=1;exitDx=0;exitDy=0;entryX=0;entryY=0;entryDx=0;entryDy=0;shadow=0;sourcePerimeterSpacing=3;endArrow=halfCircle;endFill=0;" edge="1" parent="1" source="ZFpSDuq5nXmiJ_NLIYVW-13" target="ZFpSDuq5nXmiJ_NLIYVW-15">
          <mxGeometry relative="1" as="geometry" />
        </mxCell>
        <mxCell id="ZFpSDuq5nXmiJ_NLIYVW-13" value="" style="ellipse;whiteSpace=wrap;html=1;aspect=fixed;" vertex="1" parent="1">
          <mxGeometry x="250" y="20" width="50" height="50" as="geometry" />
        </mxCell>
        <mxCell id="ZFpSDuq5nXmiJ_NLIYVW-32" style="orthogonalLoop=1;jettySize=auto;html=1;exitX=0;exitY=1;exitDx=0;exitDy=0;entryX=1;entryY=0;entryDx=0;entryDy=0;shadow=0;comic=0;sourcePerimeterSpacing=3;endArrow=halfCircle;endFill=0;" edge="1" parent="1" source="ZFpSDuq5nXmiJ_NLIYVW-14" target="ZFpSDuq5nXmiJ_NLIYVW-15">
          <mxGeometry relative="1" as="geometry" />
        </mxCell>
        <mxCell id="ZFpSDuq5nXmiJ_NLIYVW-14" value="" style="ellipse;whiteSpace=wrap;html=1;aspect=fixed;shadow=0;" vertex="1" parent="1">
          <mxGeometry x="540" y="20" width="50" height="50" as="geometry" />
        </mxCell>
        <mxCell id="ZFpSDuq5nXmiJ_NLIYVW-39" style="edgeStyle=none;comic=0;orthogonalLoop=1;jettySize=auto;html=1;exitX=1;exitY=0.5;exitDx=0;exitDy=0;entryX=0;entryY=0.5;entryDx=0;entryDy=0;shadow=0;sourcePerimeterSpacing=3;endArrow=halfCircle;endFill=0;" edge="1" parent="1" source="ZFpSDuq5nXmiJ_NLIYVW-15" target="ZFpSDuq5nXmiJ_NLIYVW-16">
          <mxGeometry relative="1" as="geometry" />
        </mxCell>
        <mxCell id="ZFpSDuq5nXmiJ_NLIYVW-40" style="edgeStyle=none;comic=0;orthogonalLoop=1;jettySize=auto;html=1;exitX=0;exitY=1;exitDx=0;exitDy=0;entryX=0.66;entryY=0.04;entryDx=0;entryDy=0;entryPerimeter=0;shadow=0;sourcePerimeterSpacing=3;endArrow=halfCircle;endFill=0;" edge="1" parent="1" source="ZFpSDuq5nXmiJ_NLIYVW-15" target="ZFpSDuq5nXmiJ_NLIYVW-20">
          <mxGeometry relative="1" as="geometry" />
        </mxCell>
        <mxCell id="ZFpSDuq5nXmiJ_NLIYVW-15" value="" style="ellipse;whiteSpace=wrap;html=1;aspect=fixed;" vertex="1" parent="1">
          <mxGeometry x="395" y="140" width="50" height="50" as="geometry" />
        </mxCell>
        <mxCell id="ZFpSDuq5nXmiJ_NLIYVW-41" style="edgeStyle=none;comic=0;orthogonalLoop=1;jettySize=auto;html=1;exitX=0.5;exitY=1;exitDx=0;exitDy=0;entryX=0.5;entryY=0;entryDx=0;entryDy=0;shadow=0;sourcePerimeterSpacing=3;endArrow=halfCircle;endFill=0;" edge="1" parent="1" source="ZFpSDuq5nXmiJ_NLIYVW-16" target="ZFpSDuq5nXmiJ_NLIYVW-17">
          <mxGeometry relative="1" as="geometry" />
        </mxCell>
        <mxCell id="ZFpSDuq5nXmiJ_NLIYVW-16" value="" style="ellipse;whiteSpace=wrap;html=1;aspect=fixed;" vertex="1" parent="1">
          <mxGeometry x="540" y="140" width="50" height="50" as="geometry" />
        </mxCell>
        <mxCell id="ZFpSDuq5nXmiJ_NLIYVW-42" style="edgeStyle=none;comic=0;orthogonalLoop=1;jettySize=auto;html=1;exitX=0;exitY=1;exitDx=0;exitDy=0;entryX=1;entryY=0;entryDx=0;entryDy=0;shadow=0;sourcePerimeterSpacing=3;endArrow=halfCircle;endFill=0;" edge="1" parent="1" source="ZFpSDuq5nXmiJ_NLIYVW-17" target="ZFpSDuq5nXmiJ_NLIYVW-18">
          <mxGeometry relative="1" as="geometry" />
        </mxCell>
        <mxCell id="ZFpSDuq5nXmiJ_NLIYVW-43" style="edgeStyle=none;comic=0;orthogonalLoop=1;jettySize=auto;html=1;exitX=0.5;exitY=1;exitDx=0;exitDy=0;entryX=0.5;entryY=0;entryDx=0;entryDy=0;shadow=0;sourcePerimeterSpacing=3;endArrow=halfCircle;endFill=0;" edge="1" parent="1" source="ZFpSDuq5nXmiJ_NLIYVW-17" target="ZFpSDuq5nXmiJ_NLIYVW-19">
          <mxGeometry relative="1" as="geometry" />
        </mxCell>
        <mxCell id="ZFpSDuq5nXmiJ_NLIYVW-17" value="" style="ellipse;whiteSpace=wrap;html=1;aspect=fixed;" vertex="1" parent="1">
          <mxGeometry x="540" y="270" width="50" height="50" as="geometry" />
        </mxCell>
        <mxCell id="ZFpSDuq5nXmiJ_NLIYVW-45" style="edgeStyle=none;comic=0;orthogonalLoop=1;jettySize=auto;html=1;exitX=0.5;exitY=1;exitDx=0;exitDy=0;entryX=0.5;entryY=0;entryDx=0;entryDy=0;shadow=0;sourcePerimeterSpacing=3;endArrow=halfCircle;endFill=0;" edge="1" parent="1" source="ZFpSDuq5nXmiJ_NLIYVW-18" target="ZFpSDuq5nXmiJ_NLIYVW-21">
          <mxGeometry relative="1" as="geometry" />
        </mxCell>
        <mxCell id="ZFpSDuq5nXmiJ_NLIYVW-18" value="" style="ellipse;whiteSpace=wrap;html=1;aspect=fixed;" vertex="1" parent="1">
          <mxGeometry x="389" y="390" width="50" height="50" as="geometry" />
        </mxCell>
        <mxCell id="ZFpSDuq5nXmiJ_NLIYVW-47" style="edgeStyle=none;comic=0;orthogonalLoop=1;jettySize=auto;html=1;exitX=0.5;exitY=1;exitDx=0;exitDy=0;entryX=0.5;entryY=0;entryDx=0;entryDy=0;shadow=0;sourcePerimeterSpacing=3;endArrow=halfCircle;endFill=0;" edge="1" parent="1" source="ZFpSDuq5nXmiJ_NLIYVW-19" target="ZFpSDuq5nXmiJ_NLIYVW-22">
          <mxGeometry relative="1" as="geometry" />
        </mxCell>
        <mxCell id="ZFpSDuq5nXmiJ_NLIYVW-19" value="" style="ellipse;whiteSpace=wrap;html=1;aspect=fixed;" vertex="1" parent="1">
          <mxGeometry x="540" y="500" width="50" height="50" as="geometry" />
        </mxCell>
        <mxCell id="ZFpSDuq5nXmiJ_NLIYVW-44" style="edgeStyle=none;comic=0;orthogonalLoop=1;jettySize=auto;html=1;exitX=1;exitY=1;exitDx=0;exitDy=0;entryX=0;entryY=0;entryDx=0;entryDy=0;shadow=0;sourcePerimeterSpacing=3;endArrow=halfCircle;endFill=0;" edge="1" parent="1" source="ZFpSDuq5nXmiJ_NLIYVW-20" target="ZFpSDuq5nXmiJ_NLIYVW-21">
          <mxGeometry relative="1" as="geometry" />
        </mxCell>
        <mxCell id="ZFpSDuq5nXmiJ_NLIYVW-20" value="" style="ellipse;whiteSpace=wrap;html=1;aspect=fixed;" vertex="1" parent="1">
          <mxGeometry x="250" y="390" width="50" height="50" as="geometry" />
        </mxCell>
        <mxCell id="ZFpSDuq5nXmiJ_NLIYVW-46" style="edgeStyle=none;comic=0;orthogonalLoop=1;jettySize=auto;html=1;exitX=0.5;exitY=1;exitDx=0;exitDy=0;entryX=0.5;entryY=0;entryDx=0;entryDy=0;shadow=0;sourcePerimeterSpacing=3;endArrow=halfCircle;endFill=0;" edge="1" parent="1" source="ZFpSDuq5nXmiJ_NLIYVW-21" target="ZFpSDuq5nXmiJ_NLIYVW-4">
          <mxGeometry relative="1" as="geometry" />
        </mxCell>
        <mxCell id="ZFpSDuq5nXmiJ_NLIYVW-48" style="edgeStyle=none;comic=0;orthogonalLoop=1;jettySize=auto;html=1;exitX=0;exitY=1;exitDx=0;exitDy=0;entryX=0.767;entryY=0.078;entryDx=0;entryDy=0;entryPerimeter=0;shadow=0;sourcePerimeterSpacing=3;endArrow=halfCircle;endFill=0;" edge="1" parent="1" source="ZFpSDuq5nXmiJ_NLIYVW-21" target="ZFpSDuq5nXmiJ_NLIYVW-23">
          <mxGeometry relative="1" as="geometry" />
        </mxCell>
        <mxCell id="ZFpSDuq5nXmiJ_NLIYVW-21" value="" style="ellipse;whiteSpace=wrap;html=1;aspect=fixed;" vertex="1" parent="1">
          <mxGeometry x="389" y="500" width="50" height="50" as="geometry" />
        </mxCell>
        <mxCell id="ZFpSDuq5nXmiJ_NLIYVW-52" style="edgeStyle=none;comic=0;orthogonalLoop=1;jettySize=auto;html=1;exitX=0.5;exitY=1;exitDx=0;exitDy=0;entryX=0.5;entryY=0;entryDx=0;entryDy=0;shadow=0;sourcePerimeterSpacing=3;endArrow=halfCircle;endFill=0;" edge="1" parent="1" source="ZFpSDuq5nXmiJ_NLIYVW-22" target="ZFpSDuq5nXmiJ_NLIYVW-26">
          <mxGeometry relative="1" as="geometry" />
        </mxCell>
        <mxCell id="ZFpSDuq5nXmiJ_NLIYVW-22" value="" style="ellipse;shape=doubleEllipse;whiteSpace=wrap;html=1;aspect=fixed;" vertex="1" parent="1">
          <mxGeometry x="520" y="660" width="90" height="90" as="geometry" />
        </mxCell>
        <mxCell id="ZFpSDuq5nXmiJ_NLIYVW-49" style="edgeStyle=none;comic=0;orthogonalLoop=1;jettySize=auto;html=1;exitX=0.5;exitY=1;exitDx=0;exitDy=0;entryX=0.5;entryY=0;entryDx=0;entryDy=0;shadow=0;sourcePerimeterSpacing=3;endArrow=halfCircle;endFill=0;" edge="1" parent="1" source="ZFpSDuq5nXmiJ_NLIYVW-23" target="ZFpSDuq5nXmiJ_NLIYVW-25">
          <mxGeometry relative="1" as="geometry" />
        </mxCell>
        <mxCell id="ZFpSDuq5nXmiJ_NLIYVW-50" style="edgeStyle=none;comic=0;orthogonalLoop=1;jettySize=auto;html=1;exitX=1;exitY=1;exitDx=0;exitDy=0;entryX=0;entryY=0;entryDx=0;entryDy=0;shadow=0;sourcePerimeterSpacing=3;endArrow=halfCircle;endFill=0;" edge="1" parent="1" source="ZFpSDuq5nXmiJ_NLIYVW-23" target="ZFpSDuq5nXmiJ_NLIYVW-24">
          <mxGeometry relative="1" as="geometry" />
        </mxCell>
        <mxCell id="ZFpSDuq5nXmiJ_NLIYVW-23" value="" style="ellipse;shape=doubleEllipse;whiteSpace=wrap;html=1;aspect=fixed;" vertex="1" parent="1">
          <mxGeometry x="220" y="700" width="90" height="90" as="geometry" />
        </mxCell>
        <mxCell id="ZFpSDuq5nXmiJ_NLIYVW-24" value="" style="ellipse;whiteSpace=wrap;html=1;aspect=fixed;" vertex="1" parent="1">
          <mxGeometry x="389" y="840" width="50" height="50" as="geometry" />
        </mxCell>
        <mxCell id="ZFpSDuq5nXmiJ_NLIYVW-25" value="" style="ellipse;whiteSpace=wrap;html=1;aspect=fixed;" vertex="1" parent="1">
          <mxGeometry x="240" y="880" width="50" height="50" as="geometry" />
        </mxCell>
        <mxCell id="ZFpSDuq5nXmiJ_NLIYVW-26" value="" style="ellipse;whiteSpace=wrap;html=1;aspect=fixed;" vertex="1" parent="1">
          <mxGeometry x="540" y="870" width="50" height="50" as="geometry" />
        </mxCell>
      </root>
    </mxGraphModel>
  </diagram>
</mxfile>
